<svg version="1.2" xmlns="http://www.w3.org/2000/svg" viewBox="0 0 500 500" width="500" height="500"><style>.a{fill:#005fa3}</style><path class="a" d="m75.8 165.9q9.2 0 17.9 4.9 8.7 4.5 13.5 13.3 5.1 8.7 5.1 18.5 0 9.2-4.8 17.9-4.9 8.7-13.6 13.6-8.5 4.8-18.1 4.8-9.4 0-18.2-4.8-8.7-4.9-13.5-13.6-4.8-8.7-4.8-17.9 0-9.8 4.8-18.5 4.8-8.8 13.5-13.3 8.8-4.9 18.2-4.9zm0 132.8q9.2 0 17.9 4.9 8.7 4.8 13.5 13.5 5.1 8.7 5.1 18.3 0 9.4-4.8 18.2-4.9 8.7-13.6 13.5-8.5 4.8-18.1 4.8-9.4 0-18.2-4.8-8.7-4.8-13.5-13.5-4.8-8.8-4.8-18.2 0-9.6 4.8-18.3 4.8-8.7 13.5-13.5 8.8-4.9 18.2-4.9zm126.7-196.1h110.2q147.2 0.3 147.2 146.8-0.2 146.1-143.3 146.6h-114.1q-36.7 0.2-36.7-36.7v-220q0-36.4 36.7-36.7zm110.5 73.7h-73.5v146.1h73.7q73 0.7 72.6-73.7 0.4-72.2-72.8-72.4z"/></svg>